<svg xmlns="http://www.w3.org/2000/svg" version="1.1" xmlns:xlink="http://www.w3.org/1999/xlink" xmlns:svgjs="http://svgjs.dev/svgjs" viewBox="0 0 6.193839635290376 1.678454822861207"><g transform="matrix(1,0,0,1,1.6317670525629557,0.2842274114306037)"><g><path d=" M 0.357 1.1249999999999998 Q 0.2715 1.1249999999999998 0.198 1.0904999999999998 Q 0.1245 1.0559999999999998 0.078 0.9914999999999998 Q 0.06 0.9644999999999999 0.06 0.9389999999999998 Q 0.06 0.9014999999999999 0.08925 0.8759999999999999 Q 0.11850000000000001 0.8504999999999998 0.147 0.8504999999999998 Q 0.1695 0.8504999999999998 0.19125 0.8639999999999999 Q 0.213 0.8774999999999998 0.231 0.8954999999999999 Q 0.261 0.9224999999999999 0.29025 0.9337499999999999 Q 0.3195 0.9449999999999998 0.357 0.9449999999999998 Q 0.402 0.9449999999999998 0.441 0.9224999999999999 Q 0.48 0.8999999999999999 0.504 0.8624999999999998 Q 0.528 0.8249999999999998 0.528 0.7814999999999999 L 0.528 0.15149999999999986 Q 0.528 0.11249999999999982 0.5565 0.08624999999999994 Q 0.585 0.05999999999999983 0.6225 0.05999999999999983 Q 0.6645 0.05999999999999983 0.6900000000000001 0.08624999999999994 Q 0.7155 0.11249999999999982 0.7155 0.15149999999999986 L 0.7155 0.7814999999999999 Q 0.7155 0.8729999999999999 0.6675 0.9509999999999998 Q 0.6195 1.029 0.5385 1.077 Q 0.4575 1.1249999999999998 0.357 1.1249999999999998 M 1.5900029296875 0.29249999999999987 Q 1.6290029296875002 0.29249999999999987 1.6545029296875 0.31799999999999984 Q 1.6800029296874999 0.3434999999999998 1.6800029296874999 0.3839999999999999 L 1.6800029296874999 1.0185 Q 1.6800029296874999 1.0574999999999999 1.6545029296875 1.0837499999999998 Q 1.6290029296875002 1.1099999999999999 1.5900029296875 1.1099999999999999 Q 1.5510029296874999 1.1099999999999999 1.5255029296875 1.0837499999999998 Q 1.5000029296875002 1.0574999999999999 1.5000029296875002 1.0185 L 1.5000029296875002 0.9449999999999998 L 1.5330029296875 0.9584999999999999 Q 1.5330029296875 0.9779999999999999 1.5120029296875002 1.00575 Q 1.4910029296875 1.0334999999999999 1.4550029296875 1.0604999999999998 Q 1.4190029296875002 1.0875 1.3702529296875001 1.10625 Q 1.3215029296875 1.1249999999999998 1.2645029296875 1.1249999999999998 Q 1.1610029296875 1.1249999999999998 1.0770029296875 1.07175 Q 0.9930029296875 1.0185 0.9442529296875 0.9247499999999998 Q 0.8955029296875 0.8309999999999998 0.8955029296875 0.7094999999999998 Q 0.8955029296875 0.5864999999999999 0.9442529296875 0.4927499999999999 Q 0.9930029296875 0.3989999999999999 1.0755029296875 0.3457499999999999 Q 1.1580029296875 0.29249999999999987 1.2585029296875 0.29249999999999987 Q 1.3230029296875 0.29249999999999987 1.3770029296875 0.31199999999999983 Q 1.4310029296875 0.3314999999999999 1.4707529296875 0.3614999999999998 Q 1.5105029296875 0.39149999999999985 1.5322529296875 0.4222499999999999 Q 1.5540029296875 0.45299999999999985 1.5540029296875 0.47399999999999987 L 1.5000029296875002 0.4934999999999998 L 1.5000029296875002 0.3839999999999999 Q 1.5000029296875002 0.34499999999999986 1.5255029296875 0.31874999999999987 Q 1.5510029296874999 0.29249999999999987 1.5900029296875 0.29249999999999987 M 1.2870029296875 0.9599999999999999 Q 1.3530029296875 0.9599999999999999 1.4025029296875 0.9269999999999998 Q 1.4520029296875 0.8939999999999999 1.4797529296875 0.8369999999999999 Q 1.5075029296875 0.7799999999999998 1.5075029296875 0.7094999999999998 Q 1.5075029296875 0.6374999999999998 1.4797529296875 0.5804999999999999 Q 1.4520029296875 0.5234999999999999 1.4025029296875 0.4904999999999998 Q 1.3530029296875 0.4574999999999999 1.2870029296875 0.4574999999999999 Q 1.2225029296875 0.4574999999999999 1.1730029296875 0.4904999999999998 Q 1.1235029296875 0.5234999999999999 1.0957529296875 0.5804999999999999 Q 1.0680029296875 0.6374999999999998 1.0680029296875 0.7094999999999998 Q 1.0680029296875 0.7799999999999998 1.0957529296875 0.8369999999999999 Q 1.1235029296875 0.8939999999999999 1.1730029296875 0.9269999999999998 Q 1.2225029296875 0.9599999999999999 1.2870029296875 0.9599999999999999 M 1.843481689453125 0.9854999999999998 Q 1.828481689453125 0.9644999999999999 1.8299816894531251 0.9314999999999999 Q 1.831481689453125 0.8984999999999999 1.868981689453125 0.8744999999999998 Q 1.892981689453125 0.8594999999999999 1.919981689453125 0.8617499999999999 Q 1.946981689453125 0.8639999999999999 1.972481689453125 0.8894999999999998 Q 2.015981689453125 0.9329999999999998 2.063981689453125 0.9569999999999999 Q 2.111981689453125 0.9809999999999999 2.183981689453125 0.9809999999999999 Q 2.206481689453125 0.9794999999999998 2.233481689453125 0.9742499999999998 Q 2.260481689453125 0.9689999999999999 2.280731689453125 0.9502499999999998 Q 2.300981689453125 0.9314999999999999 2.300981689453125 0.8924999999999998 Q 2.300981689453125 0.8594999999999999 2.278481689453125 0.8399999999999999 Q 2.255981689453125 0.8204999999999999 2.219231689453125 0.8069999999999999 Q 2.182481689453125 0.7934999999999999 2.137481689453125 0.7814999999999999 Q 2.090981689453125 0.7679999999999998 2.042231689453125 0.7514999999999998 Q 1.993481689453125 0.7349999999999999 1.9529816894531251 0.7087499999999999 Q 1.912481689453125 0.6824999999999999 1.886981689453125 0.6389999999999998 Q 1.861481689453125 0.5954999999999999 1.861481689453125 0.5294999999999999 Q 1.861481689453125 0.4544999999999999 1.903481689453125 0.4019999999999999 Q 1.945481689453125 0.3494999999999998 2.012231689453125 0.32099999999999984 Q 2.078981689453125 0.29249999999999987 2.152481689453125 0.29249999999999987 Q 2.198981689453125 0.29249999999999987 2.249981689453125 0.30374999999999985 Q 2.300981689453125 0.31499999999999984 2.347481689453125 0.3397499999999999 Q 2.393981689453125 0.3644999999999998 2.4254816894531253 0.4049999999999999 Q 2.441981689453125 0.4274999999999999 2.444981689453125 0.45899999999999985 Q 2.447981689453125 0.4904999999999998 2.416481689453125 0.5159999999999999 Q 2.393981689453125 0.5339999999999998 2.363981689453125 0.5317499999999998 Q 2.333981689453125 0.5294999999999999 2.314481689453125 0.5114999999999998 Q 2.288981689453125 0.4784999999999998 2.246231689453125 0.45899999999999985 Q 2.203481689453125 0.4394999999999999 2.147981689453125 0.4394999999999999 Q 2.125481689453125 0.4394999999999999 2.099231689453125 0.44474999999999987 Q 2.072981689453125 0.44999999999999984 2.053481689453125 0.46724999999999983 Q 2.033981689453125 0.4844999999999998 2.033981689453125 0.5219999999999999 Q 2.033981689453125 0.5564999999999999 2.056481689453125 0.5767499999999999 Q 2.078981689453125 0.5969999999999999 2.117231689453125 0.6097499999999999 Q 2.155481689453125 0.6224999999999998 2.198981689453125 0.6344999999999998 Q 2.243981689453125 0.6464999999999999 2.290481689453125 0.6629999999999998 Q 2.336981689453125 0.6794999999999999 2.375981689453125 0.7064999999999999 Q 2.414981689453125 0.7334999999999998 2.438981689453125 0.7762499999999999 Q 2.462981689453125 0.819 2.462981689453125 0.8849999999999999 Q 2.462981689453125 0.9614999999999999 2.417981689453125 1.0154999999999998 Q 2.372981689453125 1.0695 2.305481689453125 1.0972499999999998 Q 2.2379816894531253 1.1249999999999998 2.1674816894531252 1.1249999999999998 Q 2.078981689453125 1.1249999999999998 1.990481689453125 1.09425 Q 1.901981689453125 1.0635 1.843481689453125 0.9854999999999998 M 3.0494736328125 0.29249999999999987 Q 3.1574736328124997 0.29249999999999987 3.2137236328125 0.33899999999999986 Q 3.2699736328125 0.38549999999999984 3.2909736328125 0.4627499999999999 Q 3.3119736328125 0.5399999999999998 3.3119736328125 0.6344999999999998 L 3.3119736328125 1.0185 Q 3.3119736328125 1.0574999999999999 3.2864736328125 1.0837499999999998 Q 3.2609736328125 1.1099999999999999 3.2219736328125 1.1099999999999999 Q 3.1829736328125 1.1099999999999999 3.1574736328124997 1.0837499999999998 Q 3.1319736328125 1.0574999999999999 3.1319736328125 1.0185 L 3.1319736328125 0.6344999999999998 Q 3.1319736328125 0.5849999999999999 3.1199736328125 0.5452499999999999 Q 3.1079736328125 0.5054999999999998 3.0764736328125 0.4814999999999998 Q 3.0449736328125 0.4574999999999999 2.9864736328125 0.4574999999999999 Q 2.9294736328125 0.4574999999999999 2.8889736328124997 0.4814999999999998 Q 2.8484736328125 0.5054999999999998 2.8282236328125 0.5452499999999999 Q 2.8079736328125 0.5849999999999999 2.8079736328125 0.6344999999999998 L 2.8079736328125 1.0185 Q 2.8079736328125 1.0574999999999999 2.7824736328124997 1.0837499999999998 Q 2.7569736328125 1.1099999999999999 2.7179736328125 1.1099999999999999 Q 2.6789736328125 1.1099999999999999 2.6534736328125 1.0837499999999998 Q 2.6279736328125 1.0574999999999999 2.6279736328125 1.0185 L 2.6279736328125 0.09149999999999991 Q 2.6279736328125 0.05249999999999977 2.6534736328125 0.026249999999999885 Q 2.6789736328125 -2.220446049250313e-16 2.7179736328125 -2.220446049250313e-16 Q 2.7569736328125 -2.220446049250313e-16 2.7824736328124997 0.026249999999999885 Q 2.8079736328125 0.05249999999999977 2.8079736328125 0.09149999999999991 L 2.8079736328125 0.4634999999999999 L 2.7854736328125 0.45899999999999985 Q 2.7989736328125 0.4334999999999999 2.8229736328125 0.4042499999999999 Q 2.8469736328125 0.3749999999999999 2.8814736328125 0.3494999999999998 Q 2.9159736328125 0.32399999999999984 2.9579736328125 0.3082499999999999 Q 2.9999736328125 0.29249999999999987 3.0494736328125 0.29249999999999987 M 4.117471435546875 0.3074999999999999 Q 4.156471435546875 0.3074999999999999 4.181971435546875 0.3337499999999999 Q 4.207471435546875 0.3599999999999999 4.207471435546875 0.3989999999999999 L 4.207471435546875 0.7799999999999998 Q 4.207471435546875 0.9389999999999998 4.118971435546875 1.0319999999999998 Q 4.030471435546875 1.1249999999999998 3.8639714355468753 1.1249999999999998 Q 3.697471435546875 1.1249999999999998 3.609721435546875 1.0319999999999998 Q 3.521971435546875 0.9389999999999998 3.521971435546875 0.7799999999999998 L 3.521971435546875 0.3989999999999999 Q 3.521971435546875 0.3599999999999999 3.547471435546875 0.3337499999999999 Q 3.572971435546875 0.3074999999999999 3.611971435546875 0.3074999999999999 Q 3.650971435546875 0.3074999999999999 3.6764714355468753 0.3337499999999999 Q 3.701971435546875 0.3599999999999999 3.701971435546875 0.3989999999999999 L 3.701971435546875 0.7799999999999998 Q 3.701971435546875 0.8714999999999998 3.742471435546875 0.9157499999999998 Q 3.782971435546875 0.9599999999999999 3.8639714355468753 0.9599999999999999 Q 3.946471435546875 0.9599999999999999 3.986971435546875 0.9157499999999998 Q 4.027471435546875 0.8714999999999998 4.027471435546875 0.7799999999999998 L 4.027471435546875 0.3989999999999999 Q 4.027471435546875 0.3599999999999999 4.052971435546875 0.3337499999999999 Q 4.078471435546875 0.3074999999999999 4.117471435546875 0.3074999999999999" fill="#0e0904" fill-rule="nonzero"></path></g><g></g><g clip-path="url(#SvgjsClipPath1001)"><g clip-path="url(#SvgjsClipPath100065cd4193-b23a-4974-802a-0c767530959c)"><path d=" M -0.4505040946592309 1.13706840562089 L -0.46588292981734014 1.13706840562089 L -0.46588292981734014 0.6908566297867369 L -0.667858298227174 0.6908566297867369 L -0.667858298227174 0.9849409682368734 L -1.374628551866786 0.9849409682368734 L -1.374628551866786 0.02341518392479653 L -0.5086976068975164 0.02341518392479653 L -0.5086976068975164 0.03879401908290575 L -1.3592497167086768 0.03879401908290575 L -1.3592497167086768 0.9695621330787643 L -0.6832371333852832 0.9695621330787643 L -0.6832371333852832 0.6908566297867369 L -1.1452173415348843 0.6908566297867369 L -1.1452173415348843 0.30468382640984215 L -0.667858298227174 0.30468382640984215 L -0.667858298227174 0.6754777946286277 L -0.4505040946592309 0.6754777946286277 Z M -1.129838506376775 0.6754777946286277 L -0.6832371333852832 0.6754777946286277 L -0.6832371333852832 0.32008316668149556 L -1.129838506376775 0.32008316668149556 Z" fill="#0e0904" transform="matrix(1,0,0,1,0,0)" fill-rule="nonzero"></path></g><g clip-path="url(#SvgjsClipPath100065cd4193-b23a-4974-802a-0c767530959c)"><path d=" M -0.4581935122382855 0.089380134196313 C -0.48173245651345387 0.08938013273503718 -0.502953218846338 0.07519951899037723 -0.5119592660774684 0.05345157630928268 C -0.5209653133085996 0.031703633628188094 -0.5159827640021469 0.006671958443080009 -0.4993352841818135 -0.009969655457654845 C -0.4826878043614802 -0.026611269358389675 -0.45765437476640414 -0.03158499661994714 -0.4359096073731291 -0.022571285475146995 C -0.4141648399798542 -0.013557574330346869 -0.3999917057983521 0.007668184257678297 -0.39999999999999925 0.031207127071571847 C -0.40004520192093596 0.06332445383097332 -0.4260761715432203 0.08934625115951628 -0.4581935122382911 0.089380134196313 Z M -0.4581935122382855 -0.011607550008604245 C -0.47551043264093995 -0.011607550008604289 -0.49112221754605856 -0.0011760888352123529 -0.49774911608374006 0.014822659490927016 C -0.5043760146214208 0.030821407817066424 -0.500712972581975 0.04923676372329201 -0.4884680607359899 0.06148167556927654 C -0.4762231488900056 0.07372658741526109 -0.45780779298378016 0.07738962945470743 -0.44180904465764037 0.07076273091702666 C -0.42581029633150125 0.06413583237934584 -0.41537883515810914 0.04852404747422619 -0.41537883515810914 0.03120712707157189 C -0.41536250996531865 0.019837540005888693 -0.41986481297493694 0.008927435275712346 -0.4278947132828681 0.000878306279302736 C -0.43592461359079926 -0.0071708227171068985 -0.4468239186467462 -0.011699207297866492 -0.4581935122382813 -0.01171007557632498 Z" fill="#0e0904" transform="matrix(1,0,0,1,0,0)" fill-rule="nonzero"></path></g></g></g><defs><clipPath id="SvgjsClipPath1001"><path d=" M -1.374628551866786 -0.0270889107344342 h 0.9746285518667861 v 1.1641778214688683 h -0.9746285518667861 Z"></path></clipPath><clipPath id="SvgjsClipPath100065cd4193-b23a-4974-802a-0c767530959c"><path d=" M -1.374628551866786 -0.0270889107344342 L -0.3999999999999999 -0.0270889107344342 L -0.3999999999999999 1.137088910734434 L -1.374628551866786 1.137088910734434 Z"></path></clipPath></defs></svg>